<?xml version="1.0" standalone="no"?>
<!DOCTYPE svg PUBLIC "-//W3C//DTD SVG 20010904//EN"
 "http://www.w3.org/TR/2001/REC-SVG-20010904/DTD/svg10.dtd">
<svg version="1.0" xmlns="http://www.w3.org/2000/svg"
 width="1200.000000pt" height="800.000000pt" viewBox="0 0 1200.000000 800.000000"
 preserveAspectRatio="xMidYMid meet">

<g transform="translate(0.000000,800.000000) scale(0.100000,-0.100000)"
fill="#000000" stroke="none">
<path d="M5876 7911 c-16 -49 -35 -92 -43 -95 -8 -3 -56 -6 -106 -6 -372 0
-1007 -77 -1442 -175 -38 -9 -90 -20 -115 -25 -96 -20 -439 -117 -580 -164
-441 -146 -925 -369 -1253 -575 -35 -23 -70 -41 -77 -41 -7 0 -40 22 -74 48
-33 27 -88 65 -121 84 -63 38 -210 108 -226 108 -5 0 -17 4 -27 10 -42 24
-218 61 -331 70 -470 35 -894 -146 -1183 -506 -153 -190 -243 -398 -288 -669
-20 -119 -3 -414 30 -520 88 -281 188 -456 361 -627 68 -67 173 -153 224 -183
16 -10 17 -17 4 -100 -20 -135 -18 -511 5 -654 35 -228 90 -434 157 -586 9
-22 28 -67 42 -100 79 -187 241 -452 396 -648 445 -562 1124 -1047 1926 -1373
116 -47 161 -74 123 -74 -7 0 -50 -23 -96 -50 -46 -28 -85 -50 -88 -50 -2 0
-52 -35 -111 -77 -61 -44 -167 -137 -243 -213 -193 -191 -328 -378 -449 -619
l-51 -101 259 0 260 0 28 48 c82 139 307 396 414 473 l32 23 -6 -80 c-4 -43
-11 -146 -17 -229 -5 -82 -12 -169 -15 -193 l-5 -42 230 0 c126 0 231 3 234 8
2 4 10 88 16 187 11 175 24 304 54 550 26 204 29 225 31 225 1 0 37 -11 81
-24 126 -37 482 -124 599 -146 145 -27 234 -42 290 -51 545 -84 1153 -117
1625 -89 487 30 799 68 1190 146 154 31 426 96 540 130 47 14 92 27 101 30 18
5 18 3 45 -211 8 -66 19 -154 24 -195 6 -41 17 -169 25 -285 8 -116 17 -225
20 -242 l6 -33 230 0 231 0 -6 58 c-4 31 -11 118 -16 192 -5 74 -12 173 -16
219 -8 100 -10 100 107 -6 137 -122 281 -295 348 -415 l26 -48 262 0 263 0
-42 83 c-222 442 -565 803 -957 1007 -61 32 -77 50 -43 50 10 0 21 3 25 6 3 3
52 25 109 48 194 80 537 247 639 312 21 13 41 24 43 24 2 0 53 30 113 67 670
417 1165 929 1449 1498 200 399 287 799 270 1235 -4 96 -10 197 -15 223 -7 43
-6 50 13 63 190 131 303 234 404 372 112 152 212 383 243 562 17 97 23 365 9
430 -45 222 -76 319 -141 439 -271 503 -768 776 -1330 730 -113 -9 -291 -46
-331 -69 -10 -6 -23 -10 -29 -10 -30 0 -245 -118 -329 -181 -52 -39 -100 -73
-106 -75 -6 -3 -56 23 -110 57 -183 114 -495 278 -654 344 -36 15 -78 33 -95
40 -271 122 -786 289 -1115 362 -68 15 -319 66 -405 83 -187 36 -518 75 -803
94 -112 8 -206 16 -208 19 -4 3 33 125 51 170 7 16 -8 17 -237 17 l-244 0 -28
-89z m644 -576 c468 -36 858 -99 1280 -206 85 -22 175 -46 200 -54 130 -39
305 -97 380 -125 47 -17 96 -35 110 -39 119 -38 518 -224 712 -332 839 -466
1425 -1131 1607 -1822 155 -588 52 -1167 -304 -1712 -110 -169 -223 -305 -399
-481 -320 -319 -660 -557 -1132 -793 -163 -81 -249 -121 -259 -121 -3 0 -24
-9 -48 -20 -181 -84 -580 -218 -866 -291 -600 -153 -1167 -222 -1821 -222
-646 0 -1231 69 -1795 213 -285 72 -691 206 -880 290 -22 10 -69 30 -105 45
-162 67 -452 220 -630 331 -312 194 -500 343 -740 583 -397 397 -629 809 -725
1289 -40 204 -40 527 1 737 165 840 847 1594 1906 2109 95 46 225 105 288 131
63 26 124 51 135 55 80 34 314 113 496 169 407 125 977 227 1484 265 244 19
864 19 1105 1z m-5040 -649 c52 -8 129 -25 170 -39 76 -25 203 -89 207 -104 1
-4 -33 -35 -75 -68 -42 -33 -158 -141 -258 -240 -321 -319 -562 -660 -696
-985 -17 -41 -35 -79 -39 -85 -5 -5 -9 -17 -9 -27 0 -31 -22 -20 -73 35 -60
64 -127 164 -160 237 -68 152 -81 216 -82 380 0 142 9 196 52 315 117 318 397
540 739 584 99 12 118 12 224 -3z m9350 -13 c253 -51 488 -231 609 -466 75
-146 96 -240 95 -417 -1 -172 -19 -253 -89 -396 -66 -132 -224 -318 -254 -300
-5 3 -12 17 -15 30 -9 35 -67 162 -133 291 -198 387 -496 744 -907 1087 l-29
25 59 34 c222 127 422 161 664 112z"/>
<path d="M4095 5709 c-182 -23 -343 -105 -485 -249 -52 -53 -104 -114 -115
-135 -11 -22 -30 -56 -42 -77 -32 -53 -70 -180 -83 -279 -27 -198 45 -428 186
-598 181 -219 465 -331 745 -295 54 7 119 20 145 29 189 64 364 207 460 377
53 93 81 174 100 290 14 88 15 116 5 193 -54 402 -343 699 -726 744 -99 12
-91 12 -190 0z"/>
<path d="M7715 5709 c-309 -39 -593 -274 -688 -571 -70 -217 -54 -415 51 -617
161 -312 498 -490 842 -445 53 7 119 20 146 29 133 43 294 153 381 259 138
169 212 415 183 608 -58 401 -345 692 -725 737 -99 12 -91 12 -190 0z"/>
<path d="M4144 2904 c-115 -42 -179 -203 -123 -309 56 -107 285 -286 489 -382
193 -92 219 -102 375 -147 536 -157 1344 -184 1960 -65 140 28 343 82 427 114
107 41 292 131 368 179 137 85 282 208 326 278 29 46 40 128 25 186 -23 85
-125 162 -216 162 -51 0 -146 -42 -180 -80 -65 -72 -233 -183 -359 -237 -44
-19 -94 -40 -110 -48 -95 -43 -379 -110 -566 -134 -325 -42 -773 -42 -1115 0
-183 22 -480 92 -574 136 -19 8 -65 28 -104 44 -116 48 -298 168 -362 239 -55
61 -182 92 -261 64z"/>
</g>
</svg>
