<?xml version="1.0" encoding="iso-8859-1" ?>
<svg version="1.1" xmlns="http://www.w3.org/2000/svg" xmlns:xlink="http://www.w3.org/1999/xlink" 
    viewBox="0 0 500 500" width="500" height="500">
    
    
    <!-- ITEM 0 -->
    <g>
        <defs>
            <clipPath id="clip-path-id-viewbox-item-0">
                <rect x="0.0" y="0.0" width="1200.0" height="800.0"/>
            </clipPath>
        </defs>
        <g transform="translate(-94.0 16.0) rotate(0.0 357.5 238.5) scale(0.5958333333333333 0.59625)">
            <g clip-path="url(#clip-path-id-viewbox-item-0)" transform="translate(-0.0 -0.0)">
                
    
    
    <!-- ITEM 0 -->
    <g>
        <defs>
            <clipPath id="clip-path-id-viewbox-item-0-i0">
                <rect x="0.0" y="0.0" width="111.855" height="134.224"></rect>
            </clipPath>
        </defs>
        <g transform="translate(239.0 9.0) rotate(0.0 323.0 390.0) scale(5.775334137946448 5.8111813088568365)">
            <g clip-path="url(#clip-path-id-viewbox-item-0-i0)" transform="translate(-0.0 -0.0)">
                
<rect x="5.089" y="67.363" fill="#FFFFFF" width="100.78" height="58.663"></rect>
<path fill="#2B2B2B" d="M22,0h5.794c0.459,0,0.859,0.313,0.97,0.758l4.919,19.733h0.496L38.873,0.78  c0.107-0.45,0.51-0.768,0.973-0.768h5.863c0.672,0,1.153,0.65,0.956,1.292l-8.769,28.669v21.225c0,0.552-0.448,1-1,1h-5.874  c-0.552,0-1-0.448-1-1V30.934L21.043,1.29C20.849,0.648,21.329,0,22,0z M46.699,22.083c0-2.923,0.947-5.261,2.83-6.987  c1.879-1.737,4.407-2.61,7.587-2.61c2.901,0,5.268,0.913,7.114,2.748c1.846,1.819,2.77,4.18,2.77,7.062v19.518  c0,3.229-0.902,5.772-2.714,7.621c-1.812,1.842-4.295,2.763-7.483,2.763c-3.068,0-5.507-0.966-7.36-2.86  c-1.838-1.894-2.752-4.452-2.752-7.662V22.079h0.007V22.083z M53.895,42.384c0,1.025,0.246,1.842,0.764,2.409  c0.492,0.559,1.201,0.843,2.129,0.843c0.951,0,1.693-0.287,2.252-0.872c0.556-0.563,0.843-1.365,0.843-2.379V21.796  c0-0.82-0.295-1.488-0.861-1.998c-0.563-0.503-1.312-0.764-2.233-0.764c-0.854,0-1.555,0.261-2.092,0.764  c-0.533,0.511-0.802,1.178-0.802,1.998L53.895,42.384z M92.905,14.441v36.756c0,0.552-0.448,1-1,1h-4.991c-0.552,0-1-0.448-1-1  v-3.72c-1.29,1.544-2.629,2.714-4.03,3.508c-1.387,0.802-2.74,1.212-4.049,1.212c-1.622,0-2.834-0.556-3.658-1.685  c-0.824-1.119-1.227-2.8-1.227-5.059V14.441c0-0.552,0.448-1,1-1h4.987c0.552,0,1,0.448,1,1v28.402c0,0.88,0.149,1.529,0.447,1.935  c0.28,0.388,0.772,0.604,1.417,0.604c0.526,0,1.174-0.265,1.946-0.802c0.794-0.526,1.514-1.208,2.166-2.028V14.441  c0-0.552,0.448-1,1-1h4.991C92.457,13.441,92.905,13.889,92.905,14.441z"></path>
<path fill="#FFFFFF" d="M111.103,76.204c0-8.732-7.233-15.808-16.14-15.808c-12.721-0.533-25.744-0.757-39.036-0.738  c-13.284-0.019-26.307,0.209-39.036,0.738c-8.9,0-16.133,7.076-16.133,15.808c-0.529,6.905-0.775,13.817-0.757,20.737  c-0.019,6.909,0.224,13.821,0.761,20.734c0,8.743,7.226,15.82,16.129,15.82c12.729,0.522,25.752,0.746,39.036,0.727  c13.288,0.03,26.315-0.209,39.036-0.727c8.907,0,16.14-7.076,16.14-15.82c0.529-6.912,0.779-13.825,0.749-20.734  C111.882,90.022,111.632,83.109,111.103,76.204z"></path>
<g>
	<linearGradient id="SVGID_6_-i0-i0" gradientUnits="userSpaceOnUse" x1="80.2506" y1="7.5575" x2="80.2506" y2="207.6496">
		<stop offset="0" style="stop-color:#B8A7D3"></stop>
		<stop offset="0.4" style="stop-color:#ED4861"></stop>
		<stop offset="0.5" style="stop-color:#F4837D"></stop>
		<stop offset="0.59" style="stop-color:#FECEAA"></stop>
		<stop offset="1" style="stop-color:#B7D5EA"></stop>
	</linearGradient>
	<path fill="url(#SVGID_6_-i0-i0)" d="M92.655,90.771c-0.817,0-1.372,0.216-1.708,0.671c-0.239,0.339-0.541,1.115-0.541,2.804v2.886h4.448   v-2.886c0-1.663-0.309-2.442-0.563-2.822C93.975,90.98,93.438,90.771,92.655,90.771z M66.608,90.92   c-0.321,0.157-0.634,0.391-0.962,0.72v21.908c0.41,0.414,0.809,0.712,1.178,0.902c0.414,0.205,0.835,0.298,1.29,0.298   c0.861,0,1.13-0.339,1.215-0.459c0.213-0.265,0.444-0.817,0.444-2.013V93.616c0-1.036-0.198-1.838-0.567-2.33   C68.708,90.622,67.723,90.361,66.608,90.92z"></path>
	<linearGradient id="SVGID_7_-i0-i0" gradientUnits="userSpaceOnUse" x1="55.9274" y1="7.5575" x2="55.9274" y2="207.6496">
		<stop offset="0" style="stop-color:#B8A7D3"></stop>
		<stop offset="0.4" style="stop-color:#ED4861"></stop>
		<stop offset="0.5" style="stop-color:#F4837D"></stop>
		<stop offset="0.59" style="stop-color:#FECEAA"></stop>
		<stop offset="1" style="stop-color:#B7D5EA"></stop>
	</linearGradient>
	<path fill="url(#SVGID_7_-i0-i0)" d="M111.103,76.204c0-8.732-7.233-15.808-16.14-15.808c-12.721-0.533-25.744-0.757-39.036-0.738   c-13.284-0.019-26.307,0.209-39.036,0.738c-8.9,0-16.133,7.076-16.133,15.808c-0.529,6.905-0.775,13.817-0.757,20.737   c-0.019,6.909,0.224,13.821,0.761,20.734c0,8.743,7.226,15.82,16.129,15.82c12.729,0.522,25.752,0.746,39.036,0.727   c13.288,0.03,26.315-0.209,39.036-0.727c8.907,0,16.14-7.076,16.14-15.82c0.529-6.912,0.779-13.825,0.749-20.734   C111.882,90.022,111.632,83.109,111.103,76.204z M24.985,120.732c0,0.414-0.343,0.761-0.768,0.761h-7.639   c-0.425,0-0.768-0.347-0.768-0.761V79.608H8.673c-0.421,0-0.764-0.343-0.764-0.757v-7.099c0-0.418,0.343-0.761,0.764-0.761h23.455   c0.425,0,0.768,0.343,0.768,0.761v7.099c0,0.414-0.339,0.757-0.768,0.757h-7.144V120.732z M52.18,120.732   c0,0.414-0.343,0.761-0.768,0.761h-6.793c-0.425,0-0.768-0.347-0.768-0.761v-2.054c-0.906,0.869-1.812,1.558-2.752,2.088   c-1.48,0.846-2.893,1.253-4.325,1.253c-1.819,0-3.221-0.656-4.165-1.928c-0.887-1.208-1.346-2.994-1.346-5.298v-30.2   c0-0.418,0.343-0.761,0.772-0.761h6.789c0.425,0,0.768,0.343,0.768,0.761v27.694c0,0.91,0.164,1.279,0.268,1.424   c0.048,0.063,0.186,0.25,0.764,0.25c0.194,0,0.641-0.082,1.45-0.63c0.656-0.429,1.245-0.966,1.764-1.585V84.593   c0-0.418,0.343-0.761,0.772-0.761H51.4c0.425,0,0.768,0.343,0.768,0.761v36.135h0.011V120.732z M78.297,113.242   c0,2.744-0.593,4.884-1.764,6.368c-1.215,1.558-2.972,2.334-5.212,2.334c-1.428,0-2.733-0.287-3.9-0.869   c-0.619-0.309-1.219-0.712-1.786-1.212v0.869c0,0.425-0.347,0.761-0.768,0.761h-6.849c-0.425,0-0.772-0.336-0.772-0.761V71.741   c0-0.418,0.343-0.757,0.772-0.757h6.849c0.421,0,0.768,0.339,0.768,0.757V85.6c0.559-0.507,1.156-0.932,1.767-1.279   c1.152-0.634,2.33-0.954,3.508-0.954c2.39,0,4.262,0.887,5.533,2.632c1.223,1.678,1.846,4.105,1.846,7.207L78.297,113.242   L78.297,113.242z M103.385,103.518c0,0.421-0.347,0.764-0.772,0.764H90.41v6.044c0,2.207,0.306,3.15,0.552,3.546   c0.198,0.328,0.567,0.742,1.633,0.742c0.858,0,1.447-0.205,1.749-0.611c0.138-0.216,0.518-1.044,0.518-3.684v-2.517   c0-0.425,0.347-0.761,0.772-0.761h6.98c0.425,0,0.764,0.336,0.764,0.761v2.718c0,3.892-0.928,6.875-2.748,8.888   c-1.827,2.025-4.586,3.057-8.195,3.057c-3.251,0-5.868-1.104-7.751-3.247c-1.864-2.129-2.815-5.048-2.815-8.698V94.294   c0-3.326,1.036-6.077,3.095-8.188c2.051-2.118,4.75-3.195,7.994-3.195c3.318,0,5.917,1.01,7.725,2.994   c1.79,1.961,2.699,4.787,2.699,8.393v9.224h0.004V103.518z"></path>
</g>

            </g>
        </g>
    </g>
    

            </g>
        </g>
    </g>
    
</svg>